<mxfile host="app.diagrams.net" modified="2024-04-28T15:19:40.671Z" agent="Mozilla/5.0 (Windows NT 10.0; Win64; x64) AppleWebKit/537.36 (KHTML, like Gecko) Chrome/124.0.0.0 Safari/537.36" etag="_afe-JaquK4GPO_taLwX" version="24.3.1" type="github">
  <diagram name="Page-1" id="p8qjmwo4NEccDE30P_X6">
    <mxGraphModel dx="1260" dy="753" grid="0" gridSize="10" guides="1" tooltips="1" connect="1" arrows="1" fold="1" page="0" pageScale="1" pageWidth="413" pageHeight="583" math="0" shadow="0">
      <root>
        <mxCell id="0" />
        <mxCell id="1" parent="0" />
        <mxCell id="ssefnewIg9bVo7VdOt_x-1" value="" style="rounded=0;whiteSpace=wrap;html=1;fillColor=none;strokeColor=#D0CEE2;glass=0;shadow=1;labelBackgroundColor=none;fontColor=#1A1A1A;" vertex="1" parent="1">
          <mxGeometry x="40" y="32" width="400" height="669" as="geometry" />
        </mxCell>
        <mxCell id="ssefnewIg9bVo7VdOt_x-2" value="" style="verticalLabelPosition=bottom;verticalAlign=top;html=1;shape=mxgraph.basic.banner;labelBackgroundColor=none;fillColor=#5D7F99;strokeColor=#D0CEE2;fontColor=#1A1A1A;rounded=0;" vertex="1" parent="1">
          <mxGeometry x="121" y="42" width="58" height="22" as="geometry" />
        </mxCell>
        <mxCell id="ssefnewIg9bVo7VdOt_x-4" value="&lt;font data-sider-select-id=&quot;92853784-e7b6-4061-a4d0-c4a2aea4d343&quot; style=&quot;font-size: 8px;&quot;&gt;ABUJA CHAMBER OF COMMERCE AND INDUSTRY&lt;/font&gt;" style="text;strokeColor=none;fillColor=none;html=1;align=center;verticalAlign=middle;whiteSpace=wrap;rounded=0;fontSize=16;labelBackgroundColor=none;fontColor=#1A1A1A;" vertex="1" parent="1">
          <mxGeometry x="176" y="38" width="207" height="30" as="geometry" />
        </mxCell>
        <mxCell id="ssefnewIg9bVo7VdOt_x-7" value="" style="shape=partialRectangle;whiteSpace=wrap;html=1;top=0;bottom=0;fillColor=none;rotation=90;labelBackgroundColor=none;strokeColor=#D0CEE2;fontColor=#1A1A1A;rounded=0;" vertex="1" parent="1">
          <mxGeometry x="233.5" y="-96" width="29" height="300.5" as="geometry" />
        </mxCell>
        <mxCell id="ssefnewIg9bVo7VdOt_x-13" value="&lt;font data-sider-select-id=&quot;39fc411e-d209-439e-bfaf-4a5602e4df4e&quot; style=&quot;font-size: 6px;&quot;&gt;HOME&lt;/font&gt;" style="text;html=1;align=center;verticalAlign=middle;whiteSpace=wrap;rounded=0;fontSize=16;labelBackgroundColor=none;fontColor=#1A1A1A;" vertex="1" parent="1">
          <mxGeometry x="139" y="66" width="60" height="30" as="geometry" />
        </mxCell>
        <mxCell id="ssefnewIg9bVo7VdOt_x-14" value="" style="shape=partialRectangle;whiteSpace=wrap;html=1;top=0;bottom=0;fillColor=none;rotation=90;labelBackgroundColor=none;strokeColor=#D0CEE2;fontColor=#1A1A1A;rounded=0;" vertex="1" parent="1">
          <mxGeometry x="236.5" y="-19" width="14" height="206.5" as="geometry" />
        </mxCell>
        <mxCell id="ssefnewIg9bVo7VdOt_x-15" value="&lt;font data-sider-select-id=&quot;39fc411e-d209-439e-bfaf-4a5602e4df4e&quot; style=&quot;font-size: 6px;&quot;&gt;DISCOVER&lt;/font&gt;" style="text;html=1;align=center;verticalAlign=middle;whiteSpace=wrap;rounded=0;fontSize=16;labelBackgroundColor=none;fontColor=#1A1A1A;" vertex="1" parent="1">
          <mxGeometry x="190.5" y="66" width="60" height="30" as="geometry" />
        </mxCell>
        <mxCell id="ssefnewIg9bVo7VdOt_x-16" value="&lt;font data-sider-select-id=&quot;39fc411e-d209-439e-bfaf-4a5602e4df4e&quot; style=&quot;font-size: 6px;&quot;&gt;DIRECTORY&lt;/font&gt;" style="text;html=1;align=center;verticalAlign=middle;whiteSpace=wrap;rounded=0;fontSize=16;labelBackgroundColor=none;fontColor=#1A1A1A;" vertex="1" parent="1">
          <mxGeometry x="236.5" y="66" width="60" height="30" as="geometry" />
        </mxCell>
        <mxCell id="ssefnewIg9bVo7VdOt_x-17" value="&lt;font data-sider-select-id=&quot;39fc411e-d209-439e-bfaf-4a5602e4df4e&quot; style=&quot;font-size: 6px;&quot;&gt;JOIN&lt;/font&gt;" style="text;html=1;align=center;verticalAlign=middle;whiteSpace=wrap;rounded=0;fontSize=16;labelBackgroundColor=none;fontColor=#1A1A1A;" vertex="1" parent="1">
          <mxGeometry x="291" y="66.25" width="60" height="30" as="geometry" />
        </mxCell>
        <mxCell id="ssefnewIg9bVo7VdOt_x-18" value="" style="rounded=0;whiteSpace=wrap;html=1;labelBackgroundColor=none;fillColor=#5D7F99;strokeColor=#D0CEE2;fontColor=#1A1A1A;" vertex="1" parent="1">
          <mxGeometry x="51" y="103" width="376" height="95" as="geometry" />
        </mxCell>
        <mxCell id="ssefnewIg9bVo7VdOt_x-20" value="" style="verticalLabelPosition=bottom;verticalAlign=top;html=1;shape=mxgraph.flowchart.parallel_mode;pointerEvents=1;fillColor=none;strokeColor=#D0CEE2;labelBackgroundColor=none;fontColor=#1A1A1A;rounded=0;" vertex="1" parent="1">
          <mxGeometry x="191.5" y="170" width="95" height="40" as="geometry" />
        </mxCell>
        <mxCell id="ssefnewIg9bVo7VdOt_x-21" value="" style="shape=partialRectangle;whiteSpace=wrap;html=1;top=0;bottom=0;fillColor=none;rotation=90;labelBackgroundColor=none;strokeColor=#D0CEE2;fontColor=#1A1A1A;rounded=0;" vertex="1" parent="1">
          <mxGeometry x="229" y="403.5" width="29" height="373.5" as="geometry" />
        </mxCell>
        <mxCell id="ssefnewIg9bVo7VdOt_x-22" value="" style="rounded=0;whiteSpace=wrap;html=1;absoluteArcSize=1;arcSize=14;strokeWidth=2;labelBackgroundColor=none;fillColor=#5D7F99;strokeColor=#D0CEE2;fontColor=#1A1A1A;" vertex="1" parent="1">
          <mxGeometry x="64" y="210" width="68" height="59.5" as="geometry" />
        </mxCell>
        <mxCell id="ssefnewIg9bVo7VdOt_x-23" value="" style="rounded=0;whiteSpace=wrap;html=1;absoluteArcSize=1;arcSize=14;strokeWidth=2;labelBackgroundColor=none;fillColor=#5D7F99;strokeColor=#D0CEE2;fontColor=#1A1A1A;" vertex="1" parent="1">
          <mxGeometry x="139" y="210" width="68" height="59.5" as="geometry" />
        </mxCell>
        <mxCell id="ssefnewIg9bVo7VdOt_x-26" value="" style="rounded=0;whiteSpace=wrap;html=1;absoluteArcSize=1;arcSize=14;strokeWidth=2;labelBackgroundColor=none;fillColor=#5D7F99;strokeColor=#D0CEE2;fontColor=#1A1A1A;" vertex="1" parent="1">
          <mxGeometry x="214" y="210" width="68" height="59.5" as="geometry" />
        </mxCell>
        <mxCell id="ssefnewIg9bVo7VdOt_x-29" value="" style="rounded=0;whiteSpace=wrap;html=1;absoluteArcSize=1;arcSize=14;strokeWidth=2;labelBackgroundColor=none;fillColor=#5D7F99;strokeColor=#D0CEE2;fontColor=#1A1A1A;" vertex="1" parent="1">
          <mxGeometry x="64" y="278" width="68" height="59.5" as="geometry" />
        </mxCell>
        <mxCell id="ssefnewIg9bVo7VdOt_x-30" value="" style="rounded=0;whiteSpace=wrap;html=1;absoluteArcSize=1;arcSize=14;strokeWidth=2;labelBackgroundColor=none;fillColor=#5D7F99;strokeColor=#D0CEE2;fontColor=#1A1A1A;" vertex="1" parent="1">
          <mxGeometry x="139" y="278" width="68" height="59.5" as="geometry" />
        </mxCell>
        <mxCell id="ssefnewIg9bVo7VdOt_x-31" value="" style="rounded=0;whiteSpace=wrap;html=1;absoluteArcSize=1;arcSize=14;strokeWidth=2;labelBackgroundColor=none;fillColor=#5D7F99;strokeColor=#D0CEE2;fontColor=#1A1A1A;" vertex="1" parent="1">
          <mxGeometry x="214" y="278" width="68" height="59.5" as="geometry" />
        </mxCell>
        <mxCell id="ssefnewIg9bVo7VdOt_x-32" value="" style="rounded=0;whiteSpace=wrap;html=1;absoluteArcSize=1;arcSize=14;strokeWidth=2;labelBackgroundColor=none;fillColor=#5D7F99;strokeColor=#D0CEE2;fontColor=#1A1A1A;" vertex="1" parent="1">
          <mxGeometry x="289" y="210" width="135" height="126" as="geometry" />
        </mxCell>
        <mxCell id="ssefnewIg9bVo7VdOt_x-33" value="" style="rounded=0;whiteSpace=wrap;html=1;absoluteArcSize=1;arcSize=14;strokeWidth=2;labelBackgroundColor=none;fillColor=#5D7F99;strokeColor=#D0CEE2;fontColor=#1A1A1A;" vertex="1" parent="1">
          <mxGeometry x="186.5" y="347" width="68" height="9" as="geometry" />
        </mxCell>
        <mxCell id="ssefnewIg9bVo7VdOt_x-34" value="" style="verticalLabelPosition=bottom;verticalAlign=top;html=1;shape=mxgraph.basic.banner;labelBackgroundColor=none;fillColor=#5D7F99;strokeColor=#D0CEE2;fontColor=#1A1A1A;rounded=0;" vertex="1" parent="1">
          <mxGeometry x="69" y="579.25" width="58" height="22" as="geometry" />
        </mxCell>
        <mxCell id="ssefnewIg9bVo7VdOt_x-35" value="&lt;font data-sider-select-id=&quot;92853784-e7b6-4061-a4d0-c4a2aea4d343&quot; style=&quot;font-size: 8px;&quot;&gt;ABUJA CHAMBER OF COMMERCE AND INDUSTRY&lt;/font&gt;" style="text;strokeColor=none;fillColor=none;html=1;align=center;verticalAlign=middle;whiteSpace=wrap;rounded=0;fontSize=16;labelBackgroundColor=none;fontColor=#1A1A1A;" vertex="1" parent="1">
          <mxGeometry x="135.5" y="575.25" width="207" height="30" as="geometry" />
        </mxCell>
        <mxCell id="ssefnewIg9bVo7VdOt_x-37" value="" style="rounded=0;whiteSpace=wrap;html=1;absoluteArcSize=1;arcSize=14;strokeWidth=0.5;fillColor=#5D7F99;strokeColor=#D0CEE2;dashed=1;labelBackgroundColor=none;fontColor=#1A1A1A;" vertex="1" parent="1">
          <mxGeometry x="48" y="611" width="384" height="81" as="geometry" />
        </mxCell>
        <mxCell id="ssefnewIg9bVo7VdOt_x-41" value="" style="endArrow=none;html=1;rounded=0;fontSize=12;startSize=8;endSize=8;curved=1;labelBackgroundColor=none;strokeColor=#736CA8;fontColor=default;" edge="1" parent="1">
          <mxGeometry width="50" height="50" relative="1" as="geometry">
            <mxPoint x="414" y="371" as="sourcePoint" />
            <mxPoint x="73" y="371" as="targetPoint" />
          </mxGeometry>
        </mxCell>
        <mxCell id="ssefnewIg9bVo7VdOt_x-42" value="" style="endArrow=none;html=1;rounded=0;fontSize=12;startSize=8;endSize=8;curved=1;labelBackgroundColor=none;strokeColor=#736CA8;fontColor=default;" edge="1" parent="1">
          <mxGeometry width="50" height="50" relative="1" as="geometry">
            <mxPoint x="409.5" y="564" as="sourcePoint" />
            <mxPoint x="68.5" y="564" as="targetPoint" />
          </mxGeometry>
        </mxCell>
        <mxCell id="ssefnewIg9bVo7VdOt_x-43" value="" style="rounded=0;whiteSpace=wrap;html=1;absoluteArcSize=1;arcSize=14;strokeWidth=2;labelBackgroundColor=none;fillColor=#5D7F99;strokeColor=#D0CEE2;fontColor=#1A1A1A;" vertex="1" parent="1">
          <mxGeometry x="61" y="382" width="135" height="173" as="geometry" />
        </mxCell>
        <mxCell id="ssefnewIg9bVo7VdOt_x-44" value="" style="rounded=0;whiteSpace=wrap;html=1;absoluteArcSize=1;arcSize=14;strokeWidth=2;labelBackgroundColor=none;fillColor=#5D7F99;strokeColor=#D0CEE2;fontColor=#1A1A1A;" vertex="1" parent="1">
          <mxGeometry x="283" y="451" width="68" height="98.5" as="geometry" />
        </mxCell>
        <mxCell id="ssefnewIg9bVo7VdOt_x-45" value="" style="rounded=0;whiteSpace=wrap;html=1;absoluteArcSize=1;arcSize=14;strokeWidth=2;labelBackgroundColor=none;fillColor=#5D7F99;strokeColor=#D0CEE2;fontColor=#1A1A1A;" vertex="1" parent="1">
          <mxGeometry x="282" y="382" width="68" height="59.5" as="geometry" />
        </mxCell>
        <mxCell id="ssefnewIg9bVo7VdOt_x-46" value="" style="rounded=0;whiteSpace=wrap;html=1;absoluteArcSize=1;arcSize=14;strokeWidth=2;labelBackgroundColor=none;fillColor=#5D7F99;strokeColor=#D0CEE2;fontColor=#1A1A1A;" vertex="1" parent="1">
          <mxGeometry x="208" y="451" width="68" height="98.5" as="geometry" />
        </mxCell>
        <mxCell id="ssefnewIg9bVo7VdOt_x-47" value="" style="rounded=0;whiteSpace=wrap;html=1;absoluteArcSize=1;arcSize=14;strokeWidth=2;labelBackgroundColor=none;fillColor=#5D7F99;strokeColor=#D0CEE2;fontColor=#1A1A1A;" vertex="1" parent="1">
          <mxGeometry x="207" y="382" width="68" height="59.5" as="geometry" />
        </mxCell>
        <mxCell id="ssefnewIg9bVo7VdOt_x-48" value="" style="rounded=0;whiteSpace=wrap;html=1;absoluteArcSize=1;arcSize=14;strokeWidth=2;labelBackgroundColor=none;fillColor=#5D7F99;strokeColor=#D0CEE2;fontColor=#1A1A1A;" vertex="1" parent="1">
          <mxGeometry x="359" y="382" width="68" height="168" as="geometry" />
        </mxCell>
        <mxCell id="ssefnewIg9bVo7VdOt_x-49" value="" style="triangle;whiteSpace=wrap;html=1;labelBackgroundColor=none;fillColor=#5D7F99;strokeColor=#D0CEE2;fontColor=#1A1A1A;rounded=0;" vertex="1" parent="1">
          <mxGeometry x="394" y="139" width="18" height="23" as="geometry" />
        </mxCell>
        <mxCell id="ssefnewIg9bVo7VdOt_x-50" value="" style="triangle;whiteSpace=wrap;html=1;rotation=-180;labelBackgroundColor=none;fillColor=#5D7F99;strokeColor=#D0CEE2;fontColor=#1A1A1A;rounded=0;" vertex="1" parent="1">
          <mxGeometry x="64" y="139" width="18" height="23" as="geometry" />
        </mxCell>
      </root>
    </mxGraphModel>
  </diagram>
</mxfile>
